<?xml version="1.0" encoding="utf-8"?>
<!-- Generator: Adobe Illustrator 18.0.0, SVG Export Plug-In . SVG Version: 6.00 Build 0)  -->
<!DOCTYPE svg PUBLIC "-//W3C//DTD SVG 1.1//EN" "http://www.w3.org/Graphics/SVG/1.1/DTD/svg11.dtd">
<svg version="1.1" id="Layer_1" xmlns="http://www.w3.org/2000/svg" xmlns:xlink="http://www.w3.org/1999/xlink" x="0px" y="0px"
	 viewBox="0 0 100 100" enable-background="new 0 0 100 100" xml:space="preserve">
<path fill="#FFC837" d="M95,54.1h-8.2c-2.3,0-4.1-1.8-4.1-4.1s1.8-4.1,4.1-4.1H95c2.3,0,4.1,1.8,4.1,4.1S97.3,54.1,95,54.1z
	 M79,26.8c-1.6,1.6-4.2,1.6-5.8,0c-1.6-1.6-1.6-4.2,0-5.8l5.8-5.8c1.6-1.6,4.2-1.6,5.8,0c1.6,1.6,1.6,4.2,0,5.8L79,26.8z M50,74.6
	c-13.6,0-24.6-11-24.6-24.6c0-13.6,11-24.6,24.6-24.6c13.6,0,24.6,11,24.6,24.6C74.6,63.6,63.6,74.6,50,74.6z M50,33.6
	c-9,0-16.4,7.3-16.4,16.4c0,9,7.3,16.4,16.4,16.4S66.4,59,66.4,50C66.4,41,59,33.6,50,33.6z M50,17.3c-2.3,0-4.1-1.8-4.1-4.1V5
	c0-2.3,1.8-4.1,4.1-4.1c2.3,0,4.1,1.8,4.1,4.1v8.2C54.1,15.4,52.3,17.3,50,17.3z M21.1,26.8l-5.8-5.8c-1.6-1.6-1.6-4.2,0-5.8
	s4.2-1.6,5.8,0l5.8,5.8c1.6,1.6,1.6,4.2,0,5.8C25.2,28.4,22.7,28.4,21.1,26.8z M17.3,50c0,2.3-1.8,4.1-4.1,4.1H5
	c-2.3,0-4.1-1.8-4.1-4.1s1.8-4.1,4.1-4.1h8.2C15.4,45.9,17.3,47.7,17.3,50z M21.1,73.2c1.6-1.6,4.2-1.6,5.8,0c1.6,1.6,1.6,4.2,0,5.8
	l-5.8,5.8c-1.6,1.6-4.2,1.6-5.8,0c-1.6-1.6-1.6-4.2,0-5.8L21.1,73.2z M50,82.7c2.3,0,4.1,1.8,4.1,4.1V95c0,2.3-1.8,4.1-4.1,4.1
	c-2.3,0-4.1-1.8-4.1-4.1v-8.2C45.9,84.6,47.7,82.7,50,82.7z M79,73.2l5.8,5.8c1.6,1.6,1.6,4.2,0,5.8c-1.6,1.6-4.2,1.6-5.8,0
	l-5.8-5.8c-1.6-1.6-1.6-4.2,0-5.8C74.8,71.6,77.3,71.6,79,73.2z"/>
</svg>
